# AST/ASF file generated using VICON BodyLanguage
# -----------------------------------------------
:version 1.10
:name VICON
:units
  mass 1.0
  length 0.45
  angle deg
:documentation
   .ast/.asf automatically generated from VICON data using
   VICON BodyBuilder and BodyLanguage model FoxedUp or BRILLIANT.MOD
:root
   order TX TY TZ RX RY RZ
   axis XYZ
   position 0 0 0  
   orientation 0 0 0 
:bonedata
  begin
     id 1 
     name lhipjoint
     direction 0.521689 -0.742065 0.420928 
     length 2.47002 
     axis 0 0 0  XYZ
  end
  begin
     id 2 
     name lfemur
     direction 0.34202 -0.939693 0  
     length 7.24654  
     axis 0 0 20  XYZ
    dof rx ry rz
    limits (-160.0 20.0)
           (-70.0 70.0)
           (-60.0 70.0)
  end
  begin
     id 3 
     name ltibia
     direction 0.34202 -0.939693 0   
     length 8.04849   
     axis 0 0 20   XYZ
    dof rx
    limits (-10.0 170.0)
  end
  begin
     id 4 
     name lfoot
     direction 0.0745411 -0.2048 0.975961   
     length 1.72367   
     axis -90 7.62852e-016 20   XYZ
    dof rx rz
    limits (-45.0 90.0)
           (-70.0 20.0)
  end
  begin
     id 5 
     name ltoes
     direction 1.53556e-011 -4.21901e-011 1   
     length 0.87311   
     axis -90 7.62852e-016 20   XYZ
    dof rx
    limits (-90.0 20.0)
  end
  begin
     id 6 
     name rhipjoint
     direction -0.52849 -0.738415 0.418857   
     length 2.48223  
     axis 0 0 0  XYZ 
  end
  begin
     id 7 
     name rfemur
     direction -0.34202 -0.939693 0   
     length 7.15571   
     axis 0 0 -20   XYZ
    dof rx ry rz
    limits (-160.0 20.0)
           (-70.0 70.0)
           (-70.0 60.0)
  end
  begin
     id 8 
     name rtibia
     direction -0.34202 -0.939693 0   
     length 7.81659   
     axis 0 0 -20   XYZ
    dof rx
    limits (-10.0 170.0)
 end
 begin
     id 9 
     name rfoot
     direction -0.0917348 -0.252039 0.963359   
     length 1.84382  
     axis -90 -7.62852e-016 -20   XYZ
    dof rx rz
    limits (-45.0 90.0)
           (-20.0 70.0)
  end
  begin
     id 10 
     name rtoes
     direction -1.53551e-011 -4.21879e-011 1   
     length 0.927771   
     axis -90 -7.62852e-016 -20   XYZ
    dof rx
    limits (-90.0 20.0)
  end
  begin
     id 11 
     name lowerback
     direction 0.00583058 0.999822 0.0179296   
     length 2.1429   
     axis 0 0 0   XYZ
    dof rx ry rz
    limits (-20.0 45.0)
           (-30.0 30.0)
           (-30.0 30.0)
  end
  begin
     id 12 
     name upperback
     direction -0.0137999 0.999752 -0.0175071   
     length 2.14252   
     axis 0 0 0   XYZ
    dof rx ry rz
    limits (-20.0 45.0)
           (-30.0 30.0)
           (-30.0 30.0)
  end
  begin
     id 13 
     name thorax
     direction -0.0158036 0.99955 -0.0254909   
     length 2.1383   
     axis 0 0 0   XYZ
    dof rx ry rz
    limits (-20.0 45.0)
           (-30.0 30.0)
           (-30.0 30.0)
  end
  begin
     id 14 
     name lowerneck
     direction -0.0101179 0.999403 -0.0330262   
     length 1.65808   
     axis 0 0 0   XYZ
    dof rx ry rz
    limits (-20.0 45.0)
           (-30.0 30.0)
           (-30.0 30.0)
  end
  begin
     id 15 
     name upperneck
     direction 0.0497734 0.995978 -0.074501   
     length 1.5897   
     axis 0 0 0   XYZ
    dof rx ry rz
    limits (-20.0 45.0)
           (-30.0 30.0)
           (-30.0 30.0)
  end
  begin
     id 16
     name head
     direction 0.0189524 0.999519 -0.0245438  
     length 1.74024  
     axis 0 0 0   XYZ
    dof rx ry rz
    limits (-20.0 45.0)
           (-30.0 30.0)
           (-30.0 30.0)
  end
  begin
     id 17 
     name lclavicle
     direction 0.945604 0.324422 0.0241537  
     length 3.59089  
     axis 0 0 0   XYZ
    dof ry rz
    limits (-20.0 10.0)
           (0.0 20.0)
  end
  begin
     id 18 
     name lhumerus
     direction 1 -4.48964e-011 -2.63524e-027   
     length 5.2391   
     axis 180 -30 -90   XYZ
    dof rx ry rz
    limits (-60.0 90.0)
           (-90.0 90.0)
           (-90.0 90.0)
  end
  begin
     id 19
     name lradius
     direction 1 -4.48969e-011 3.86978e-028   
     length 3.31467   
     axis 180 -30 -90   XYZ
    dof rx
    limits (-10.0 170.0)
  end
  begin
     id 20
     name lwrist
     direction 1 -4.48963e-011 7.20928e-028   
     length 1.65734   
     axis -5.52449e-016 90 90   XYZ
    dof ry
    limits (-180.0 0.0)
 end
  begin
     id 21 
     name lhand
     direction 1 -4.48964e-011 1.44186e-027   
     length 0.9659   
     axis -9.20027e-016 90 90   XYZ
    dof rx rz
    limits (-90.0 90.0)
           (-45.0 45.0)
  end
  begin
     id 22 
     name lfingers
     direction 1 -4.48965e-011 2.88371e-027   
     length 0.778733   
     axis -1.84005e-015 90 90   XYZ
    dof rx
    limits (0.0 90.0)
  end
  begin
     id 23
     name lthumb
     direction 0.707107 -6.34931e-011 0.707107   
     length 1.11811   
     axis -90 45 2.85299e-015   XYZ
    dof rx rz
    limits (-45.0 45.0)
           (-45.0 45.0)
  end
  begin
     id 24 
     name rclavicle
     direction -0.923762 0.370785 0.0958234   
     length 3.54196  
     axis 0 0 0   XYZ 
    dof ry rz
    limits (-10.0 20.0)
           (-20.0 0.0)
  end
  begin
     id 25 
     name rhumerus
     direction -1 -4.48966e-011 1.18702e-017  
     length 5.30252   
     axis 180 30 90   XYZ
    dof rx ry rz
    limits (-90.0 60.0)
           (-90.0 90.0)
           (-90.0 90.0)
  end
  begin
     id 26 
     name rradius
     direction -1 -4.48966e-011 4.46736e-027   
     length 3.67875   
     axis 180 30 90   XYZ
    dof rx
    limits (-10.0 170.0)
  end
  begin
     id 27 
     name rwrist
     direction -1 -4.48966e-011 7.20928e-028   
     length 1.83937   
     axis -5.52449e-016 -90 -90   XYZ
    dof ry
    limits (-180.0 0.0)
  end
  begin
     id 28
     name rhand
     direction -1 -4.48973e-011 1.44186e-027   
     length 0.594811   
     axis -9.20027e-016 -90 -90   XYZ
    dof rx rz
    limits (-90.0 90.0)
           (-45.0 45.0)
  end
  begin
     id 29
     name rfingers
     direction -1 -4.48963e-011 2.88371e-027   
     length 0.479552   
     axis -1.84005e-015 -90 -90   XYZ
    dof rx
    limits (0.0 90.0)
  end
  begin
     id 30
     name rthumb
     direction -0.707107 -6.34932e-011 0.707107   
     length 0.688544   
     axis -90 -45 -2.85299e-015   XYZ
    dof rx rz
    limits (-45.0 45.0)
           (-45.0 45.0)
  end
:hierarchy
  begin
    root lhipjoint rhipjoint lowerback
    lhipjoint lfemur
    lfemur ltibia
    ltibia lfoot
    lfoot ltoes
    rhipjoint rfemur
    rfemur rtibia
    rtibia rfoot
    rfoot rtoes
    lowerback upperback
    upperback thorax
    thorax lowerneck lclavicle rclavicle
    lowerneck upperneck
    upperneck head
    lclavicle lhumerus
    lhumerus lradius
    lradius lwrist
    lwrist lhand lthumb
    lhand lfingers
    rclavicle rhumerus
    rhumerus rradius
    rradius rwrist
    rwrist rhand rthumb
    rhand rfingers
  end

#!OML:ASF E:\acrobat2\Project_11_07_03\Capture day 1\Session 1\Acrobat.ASF
:FULLY-SPECIFIED
:DEGREES
133
root 10.5311 20.3515 -16.3573 4.94895 -5.81529 -4.11851
lowerback -6.12602 -1.39265 2.32631
upperback 0.892564 -2.04627 0.252505
thorax 4.28793 -0.961406 -1.24198
lowerneck 4.22376 -9.03764 -7.54498
upperneck 2.27723 -12.6174 11.8348
head 1.22643 -6.39239 4.64376
rclavicle 7.15625e-015 -1.15295e-014
rhumerus -39.417 -4.95348 -80.2019
rradius 31.6025
rwrist 2.43737
rhand -1.14718 -48.1069
rfingers 7.12502
rthumb 24.4911 -76.5609
lclavicle 7.15625e-015 -1.15295e-014
lhumerus -30.7563 18.4641 73.2495
lradius 30.5765
lwrist 161.936
lhand -28.2387 11.6907
lfingers 7.12502
lthumb -1.61645 41.6643
rfemur -14.6573 6.65376 21.7342
rtibia 30.453
rfoot -28.9126 -7.98355
rtoes 10.6191
lfemur -20.6326 -3.33938 -12.0593
ltibia 43.3662
lfoot -28.7912 -9.33798
ltoes 7.78511
134
root 10.5314 20.3497 -16.3568 4.9153 -5.80698 -4.09037
lowerback -6.15411 -1.36386 2.34167
upperback 0.914072 -2.00853 0.213333
thorax 4.32564 -0.94111 -1.28873
lowerneck 4.36876 -9.18766 -7.47878
upperneck 2.04704 -12.8024 11.7839
head 1.1465 -6.49242 4.62614
rclavicle 1.28962e-014 -1.39149e-014
rhumerus -39.338 -5.08404 -80.1875
rradius 31.4825
rwrist 2.47565
rhand -1.09157 -48.1406
rfingers 7.12502
rthumb 24.5444 -76.5875
lclavicle 1.28962e-014 -1.39149e-014
lhumerus -30.727 18.2028 73.3153
lradius 30.5988
lwrist 162.247
lhand -28.5464 11.022
lfingers 7.12502
lthumb -1.91367 40.9931
rfemur -14.6378 6.51032 21.7041
rtibia 30.4826
rfoot -28.8715 -7.93949
rtoes 10.3973
lfemur -20.5934 -3.33108 -12.1008
ltibia 43.3604
lfoot -28.8307 -9.28374
ltoes 7.33269
135
root 10.5315 20.3479 -16.3563 4.89232 -5.77827 -4.04515
lowerback -6.26368 -1.33765 2.35256
upperback 0.975669 -1.97627 0.160816
thorax 4.45067 -0.921845 -1.35037
lowerneck 4.38722 -9.04745 -7.5543
upperneck 2.09832 -12.6286 11.9879
head 1.1588 -6.40658 4.70365
rclavicle 1.17283e-014 -1.15295e-014
rhumerus -39.2467 -5.22313 -80.2041
rradius 31.4292
rwrist 2.4699
rhand -1.14294 -48.1861
rfingers 7.12502
rthumb 24.4952 -76.6396
lclavicle 1.17283e-014 -1.15295e-014
lhumerus -30.5947 17.9164 73.4151
lradius 30.5394
lwrist 162.685
lhand -28.9716 10.2155
lfingers 7.12502
lthumb -2.32426 40.1826
rfemur -14.6565 6.36736 21.6535
rtibia 30.5197
rfoot -28.8242 -7.86873
rtoes 10.5485
lfemur -20.5682 -3.36142 -12.1554
ltibia 43.3504
lfoot -28.8569 -9.24273
ltoes 6.85555
136
root 10.531 20.3453 -16.3568 4.87725 -5.76144 -4.0239
lowerback -6.31955 -1.34256 2.33699
upperback 1.00482 -1.98338 0.15433
thorax 4.51261 -0.924529 -1.35121
lowerneck 4.44987 -9.12295 -7.51638
upperneck 1.95376 -12.7168 11.9173
head 1.10832 -6.4545 4.68119
rclavicle -4.3509e-014 1.19271e-015
rhumerus -39.2071 -5.27911 -80.2032
rradius 31.4363
rwrist 2.45263
rhand -1.27645 -48.1763
rfingers 7.12502
rthumb 24.3672 -76.6471
lclavicle -4.3509e-014 1.19271e-015
lhumerus -30.5617 17.8423 73.4814
lradius 30.4872
lwrist 162.803
lhand -28.9828 10.1731
lfingers 7.12502
lthumb -2.33505 40.1401
rfemur -14.6766 6.27142 21.6319
rtibia 30.5637
rfoot -28.8852 -7.72946
rtoes 10.6963
lfemur -20.5487 -3.32792 -12.1788
ltibia 43.3307
lfoot -28.9068 -9.17938
ltoes 6.23485
137
root 10.5293 20.3437 -16.3568 4.86014 -5.76881 -3.97236
lowerback -6.30503 -1.3558 2.25427
upperback 0.997508 -1.99401 0.155724
thorax 4.49911 -0.932212 -1.30392
lowerneck 4.40406 -9.12775 -7.4284
upperneck 1.99571 -12.715 11.7439
head 1.11131 -6.45034 4.61326
rclavicle -2.97183e-014 1.47101e-014
rhumerus -39.2284 -5.27958 -80.1978
rradius 31.4533
rwrist 2.3467
rhand -1.52302 -48.0084
rfingers 7.12502
rthumb 24.1308 -76.5107
lclavicle -2.97183e-014 1.47101e-014
lhumerus -30.6152 17.8729 73.4949
lradius 30.489
lwrist 162.698
lhand -28.8031 10.4002
lfingers 7.12502
lthumb -2.16154 40.369
rfemur -14.6783 6.24303 21.5816
rtibia 30.6083
rfoot -29.0013 -7.58267
rtoes 10.7775
lfemur -20.5211 -3.32504 -12.2343
ltibia 43.3005
lfoot -28.9604 -9.10647
ltoes 5.92901
138
root 10.5278 20.3419 -16.3562 4.80945 -5.71757 -3.95121
lowerback -6.26786 -1.38057 2.21633
upperback 1.01022 -2.02296 0.148797
thorax 4.49125 -0.947476 -1.29178
lowerneck 4.29257 -9.09608 -7.32165
upperneck 2.11698 -12.6686 11.6211
head 1.14587 -6.42073 4.55334
rclavicle -7.10655e-015 -1.35174e-014
rhumerus -39.2768 -5.22704 -80.2306
rradius 31.4893
rwrist 2.19374
rhand -1.65466 -47.8033
rfingers 7.12502
rthumb 24.0046 -76.3224
lclavicle -7.10655e-015 -1.35174e-014
lhumerus -30.5707 17.8962 73.4928
lradius 30.4899
lwrist 162.547
lhand -28.5663 10.7507
lfingers 7.12502
lthumb -1.93287 40.7217
rfemur -14.6304 6.24649 21.5748
rtibia 30.6397
rfoot -29.1075 -7.61758
rtoes 10.7443
lfemur -20.4705 -3.43769 -12.2508
ltibia 43.2736
lfoot -29.0015 -9.11667
ltoes 6.11754
